# xmcd
#
# Track frame offsets: 
#        150
#        18133
#        37163
#        57121
#        72761
#        88163
#        109663
#        125768
#        145965
#        173657
#
# Disc length: 2623 seconds
#
# Revision: 1
# Processed by: cddbd v1.5.2PL0 Copyright (c) Steve Scherf et al.
# Submitted via: ExactAudioCopyFreeDBPlugin 1.0
#
DISCID=870a3d0a
DTITLE=The Kenneth Brian Band - Welcome to Alabama
DYEAR=2011
DGENRE=Country
TTITLE0=Something Better
TTITLE1=Texas By Tonight
TTITLE2=Welcome To Alabama
TTITLE3=Last Call (with Lillie Mae Rische)
TTITLE4=Holdin On
TTITLE5=Tonight We Ride
TTITLE6=Nothing You Can Do (with Bonnie Bramlett)
TTITLE7=Prayer For Love (Featuring Jason Isbell)
TTITLE8=The Fall
TTITLE9=Cry To The Dark
EXTD=
EXTT0=
EXTT1=
EXTT2=
EXTT3=
EXTT4=
EXTT5=
EXTT6=
EXTT7=
EXTT8=
EXTT9=
PLAYORDER=
